<svg width="147" height="30" viewBox="0 0 147 30" fill="none" xmlns="http://www.w3.org/2000/svg">
<g id="Frame 3" clip-path="url(#clip0_147_87)">
<g id="Group 1">
<path id="Vector" d="M52.5242 21.2305L52.5476 21.2262C52.4157 20.5272 51.0161 19.8703 49.5338 19.1746C49.2477 19.0402 48.9637 18.9068 48.6899 18.7735L48.0035 18.4229C47.9509 18.3939 47.8995 18.366 47.8459 18.3359C47.5194 18.1627 47.202 17.967 46.9024 17.752C46.7559 17.6466 46.6106 17.5348 46.4698 17.4186C46.1936 17.1907 45.9298 16.9423 45.6873 16.6799C45.3877 16.3563 45.1127 16.0068 44.8712 15.638C44.6801 15.3477 44.5068 15.0412 44.3559 14.7283C44.2821 14.5746 44.2105 14.4143 44.1457 14.2531C44.1133 14.1724 44.0831 14.0918 44.0529 14.0111C43.9948 13.8498 43.94 13.6842 43.8931 13.5197C43.7008 12.852 43.6035 12.1681 43.6035 11.4875C43.6035 11.0165 43.608 10.5724 43.6181 10.166C43.6237 9.92295 43.6304 9.69176 43.6393 9.47134C43.6483 9.25091 43.6583 9.0423 43.6706 8.8423C43.6784 8.70897 43.6874 8.58101 43.6963 8.45521C43.7008 8.39284 43.7053 8.33155 43.7109 8.27133C43.7712 7.5337 43.8584 6.91005 43.9836 6.31005C43.9926 6.26703 44.0015 6.2251 44.0104 6.18316C44.0294 6.09929 44.0485 6.0165 44.0675 5.93585C44.0865 5.85521 44.1066 5.77456 44.1278 5.69607C44.1412 5.64338 44.1569 5.58961 44.1725 5.53585L44.1871 5.48639C44.1994 5.44553 44.2117 5.40359 44.224 5.36273L44.2955 5.138C44.3928 4.83908 44.5045 4.52187 44.604 4.23693C44.7091 3.93908 44.8075 3.65736 44.8712 3.44875C44.926 3.26918 44.9495 3.16381 44.9495 3.09499C44.9495 2.81865 44.5392 2.46273 44.3626 2.32187C43.9244 1.97349 43.2838 1.6208 42.5091 1.30144C42.1212 1.1423 41.6987 0.98854 41.2515 0.846604C40.1001 0.481013 38.5206 0.191766 37.4653 0.0670346C36.5162 -0.0447934 36.296 0.004669 36.2111 0.0616582C35.9953 0.203594 36.163 0.448755 36.6593 1.17564C37.3088 2.12617 38.3965 3.71757 39.1186 5.79177C39.6116 7.20897 39.8307 8.96488 39.8307 11.4875C39.8307 14.3272 38.2042 16.952 35.5851 18.338C35.5347 18.366 35.4833 18.395 35.4319 18.4229L35.3738 18.4541C35.3391 18.4724 35.3056 18.4907 35.272 18.509L34.7433 18.7756C34.4705 18.909 34.1844 19.0434 33.8971 19.1778C32.3041 19.9251 30.9414 20.4423 30.89 21.167C30.89 21.1692 30.7782 21.7047 31.4366 22.3864C31.4366 22.3864 31.4411 22.3918 31.4433 22.3939L31.4758 22.4305C31.5071 22.466 31.5417 22.5025 31.5808 22.5434C31.7921 22.7617 32.0436 22.9789 32.3287 23.1885L32.3499 23.2036C32.4159 23.252 32.4852 23.3004 32.5579 23.3498C32.6294 23.3993 32.7054 23.4488 32.7848 23.4993L32.7948 23.5057C34.247 24.4262 36.9578 25.5219 41.6294 25.5219C41.6428 25.5219 41.6573 25.5197 41.6696 25.5154C41.692 25.5133 41.7434 25.5133 41.7658 25.5154C41.7792 25.5197 41.7926 25.5219 41.806 25.5219C47.4691 25.5219 50.2582 23.9079 51.4163 22.9455C51.698 22.7122 51.8881 22.5133 51.9976 22.3875C52.1217 22.2455 52.2279 22.1036 52.3129 21.9649C52.3229 21.9488 52.333 21.9315 52.3453 21.91C52.3565 21.8907 52.3665 21.8724 52.3766 21.8541C52.4213 21.7713 52.4571 21.6907 52.4828 21.6133L52.4895 21.5928C52.4996 21.5627 52.5074 21.5337 52.5141 21.5057C52.5197 21.4821 52.5242 21.4584 52.5275 21.4348C52.5286 21.424 52.5297 21.4133 52.5309 21.3993C52.5342 21.366 52.5353 21.3337 52.5342 21.3036C52.5342 21.3025 52.5342 21.3004 52.5342 21.2993H52.5364L52.5242 21.2326V21.2305ZM37.4273 0.36811C38.4669 0.49069 40.023 0.775637 41.1532 1.13478C41.5914 1.27349 42.0061 1.42402 42.3862 1.57994C43.3297 1.96918 43.8729 2.3251 44.1625 2.55521C44.5481 2.86166 44.6331 3.05951 44.6353 3.09499C44.6353 3.10574 44.632 3.13908 44.6074 3.2337L44.5817 3.24338V3.24553H44.5783L44.5146 3.26273L44.3458 3.30897L44.3145 3.3165L44.177 3.34983L44.1166 3.36273L44.016 3.38316L43.9288 3.39822L43.8294 3.41435L43.8159 3.4165H43.8059L43.6505 3.43263L43.6035 3.43478H43.5722L43.5119 3.438H43.4873L43.4146 3.43693H43.3878L43.3297 3.43263L43.2883 3.42832L43.2671 3.4251L43.191 3.41435L43.1407 3.40682L43.1251 3.40359L43.1005 3.39822L43.02 3.38209L42.8579 3.34768L42.8423 3.34445L42.8221 3.34015L42.7864 3.33155L42.7159 3.31435L42.546 3.27134L42.5147 3.26273L42.4689 3.25091L42.4309 3.24015L42.4119 3.23478L42.375 3.22402L42.2543 3.18962L42.1358 3.15413L42.1302 3.15198L42.1235 3.14983L41.9927 3.10789L41.8697 3.06811L41.8351 3.05628L41.7691 3.0337L41.6573 2.99392L41.5433 2.95306L41.4941 2.93478L41.4673 2.9251L41.398 2.89822L41.3074 2.86381L41.1487 2.80144L41.1263 2.79177L40.9195 2.70682L40.9128 2.70359L40.8379 2.67134L40.8111 2.65951L40.6501 2.58854L40.5305 2.53478L40.5126 2.52617L40.469 2.50574L40.2958 2.42402L40.2343 2.39499L40.184 2.37026L40.1135 2.33585L39.9626 2.26058L39.8922 2.2251L39.8687 2.21327L39.786 2.17026L39.6262 2.08639L39.5781 2.06058L39.5658 2.05413L39.4361 1.98316L39.3132 1.91542L39.2573 1.88424L39.2226 1.86488L39.0672 1.77564L38.999 1.73693L38.9588 1.71327L38.8548 1.65091L38.6939 1.55413L38.6704 1.54015L38.6424 1.52295L38.449 1.40252L38.411 1.37886L38.3741 1.35521L38.2735 1.29069L38.1886 1.23585L38.0902 1.17134C38.0712 1.15843 38.0522 1.14553 38.0321 1.13155H38.031C38.0041 1.11112 37.9773 1.09177 37.9493 1.07026C37.9225 1.04983 37.8957 1.0294 37.8677 1.00789C37.8476 0.991766 37.8275 0.975637 37.8063 0.959508L37.6788 0.856282L37.5961 0.78854L37.4944 0.703594L37.4407 0.658432L37.3524 0.583164L37.2373 0.484239L37.1579 0.415422L37.1232 0.385314L37.0539 0.324024C37.1702 0.334776 37.2954 0.34768 37.4318 0.362733L37.4273 0.36811ZM44.6599 20.1896C44.1915 20.1735 43.7097 20.1617 43.2257 20.1531H43.1855C42.9596 20.1488 42.7327 20.1455 42.5036 20.1434H42.3974C41.958 20.1391 41.5109 20.1391 41.0704 20.1434H40.9508C36.7007 20.181 32.9882 20.5219 31.3316 21.0197C31.7407 20.524 32.9513 19.9552 34.0346 19.4477C34.323 19.3122 34.6103 19.1778 34.8886 19.0423L35.4196 18.7746L35.5851 18.6864C35.6387 18.6574 35.6924 18.6283 35.7393 18.6004C38.4569 17.1627 40.1437 14.4369 40.1437 11.4875C40.1437 8.93155 39.919 7.14553 39.4149 5.69607C38.6804 3.58316 37.5782 1.97241 36.9198 1.00897C36.8337 0.883164 36.7331 0.736927 36.647 0.604669L36.6504 0.607895V0.602518L36.8997 0.775637L36.9824 0.832626L37.0651 0.889615L37.1266 0.931551L37.2093 0.98854L37.292 1.04553L37.3323 1.07241L37.339 1.07671L37.3971 1.1165L37.4798 1.17241L37.5626 1.22725L37.6453 1.28209L37.728 1.33693L37.7895 1.37779L37.8722 1.4337L37.9549 1.48854L37.9695 1.49822L37.9751 1.50144L38.0589 1.55628L38.1416 1.61005L38.2243 1.66273L38.2288 1.66488L38.3082 1.71542L38.3909 1.76811L38.4524 1.80574L38.4613 1.81112L38.4736 1.81865L38.5072 1.83908L38.5564 1.87026L38.6391 1.92187L38.7218 1.97241L38.7285 1.97564L38.8056 2.02295L38.8884 2.07349L38.9711 2.12295L38.9756 2.1251L39.0326 2.15951L39.046 2.16703L39.0538 2.17134L39.0818 2.18746L39.1365 2.21972L39.2192 2.26811L39.302 2.31542L39.3333 2.33155L39.3635 2.34875L39.3702 2.35198L39.3847 2.36058L39.397 2.36703L39.4674 2.40682L39.5501 2.45306L39.5591 2.45628L39.6127 2.48531L39.6787 2.5208L39.7167 2.54123L39.7994 2.58639L39.8821 2.6294L39.9168 2.6466L39.9436 2.66058L39.9503 2.66381L39.9649 2.67134L39.976 2.67671L40.0476 2.71435L40.1303 2.75628L40.1918 2.78639L40.1974 2.78962L40.213 2.79714L40.2432 2.81112L40.2969 2.838L40.3796 2.87779L40.4623 2.9165L40.4836 2.9251L40.5238 2.94445L40.5439 2.95413H40.545L40.5875 2.97241L40.6289 2.99177L40.7116 3.0294V3.02725L40.7384 3.03908H40.7407L40.7954 3.06273L40.8133 3.07026L40.8178 3.07241L40.8435 3.08424L40.8525 3.08854L40.8737 3.09822L40.8826 3.10144L40.9262 3.11972L41.0056 3.15306L41.0313 3.16381L41.0581 3.17349L41.0839 3.18316L41.1062 3.19177L41.133 3.20252L41.2057 3.23048L41.2158 3.23478L41.2471 3.2466L41.3208 3.27564L41.3466 3.28531L41.3723 3.29392L41.389 3.29929L41.3991 3.30252L41.417 3.30897L41.4215 3.31112L41.4472 3.3208L41.4729 3.33048L41.4863 3.33478L41.5075 3.3423L41.5288 3.34983L41.5534 3.35843L41.5813 3.36811L41.6596 3.39499L41.6853 3.40252L41.7378 3.41972L41.7479 3.42187L41.7613 3.42617L41.7792 3.43155L41.7915 3.43585L41.8272 3.4466L41.9491 3.48531L41.9748 3.49177L42.0005 3.49929L42.0262 3.50574L42.0598 3.51435L42.0754 3.51865L42.1011 3.52617L42.1291 3.5337L42.2274 3.56058L42.2364 3.56273L42.2889 3.57671V3.57456L42.3158 3.58101L42.3415 3.58746L42.3594 3.59069L42.3638 3.59177H42.3683V3.59284H42.3739L42.394 3.59929L42.4108 3.60359H42.4141H42.4197V3.60467H42.422L42.4432 3.61112L42.4533 3.61327L42.5024 3.62402L42.546 3.63478L42.6098 3.64983L42.631 3.65413L42.6522 3.65736L42.6735 3.66166L42.6947 3.66596L42.7137 3.66918L42.7372 3.67456L42.745 3.67671L42.7618 3.68101L42.783 3.68531L42.8177 3.69177H42.8221L42.8423 3.69607L42.897 3.70574L42.9093 3.70789L42.9172 3.70897L42.9272 3.71112H42.9306H42.9362L42.9485 3.71327L42.9585 3.71435L42.9697 3.7165L42.9831 3.71865H42.9887L42.9921 3.71972L43.0088 3.72295H43.0133L43.0983 3.73693L43.1195 3.73908L43.1396 3.7423H43.143L43.1609 3.74553L43.2033 3.75198L43.2246 3.75413L43.2458 3.75628L43.2604 3.75736H43.2671H43.2704L43.2805 3.75951H43.2883H43.2917L43.3062 3.76058H43.3095H43.3129L43.3364 3.76273L43.352 3.76488H43.3554H43.3587H43.3733H43.3811L43.4157 3.76918L43.437 3.77134H43.4403L43.4549 3.77241H43.4582H43.4616H43.4672H43.4795H43.4828H43.4906H43.5007H43.5052L43.5219 3.77349H43.5231H43.5421H43.5454L43.5633 3.77456H43.5644L43.6058 3.77671H43.6091H43.627H43.6483H43.6516H43.6606H43.6695H43.6728H43.6941H43.7097H43.712H43.7332H43.7377H43.7545H43.7623H43.7757H43.7858H43.7958H43.7992L43.8204 3.77564L43.8372 3.77456H43.8383H43.8416L43.8629 3.77241L43.8785 3.77026H43.8808L43.892 3.76811H43.8975L43.9233 3.76596L43.9445 3.76381L43.9657 3.76166L43.9691 3.76058V3.76273L43.9903 3.75843L44.0116 3.75521L44.0328 3.75091L44.073 3.7423L44.0921 3.73908L44.1133 3.73478L44.1345 3.73155L44.1379 3.73048V3.7337L44.1591 3.72725V3.7294L44.1804 3.72295L44.2105 3.71435L44.2452 3.70359L44.253 3.70144V3.70574L44.2653 3.70144V3.70574L44.2866 3.69714L44.3078 3.68854V3.69069L44.3682 3.66596L44.3715 3.66488V3.67241L44.4464 3.63693L44.4531 3.63478L44.4598 3.63048C44.4084 3.78101 44.3503 3.94875 44.2866 4.12832C44.1871 4.41005 44.0753 4.7294 43.9758 5.03585L43.9031 5.26381C43.8897 5.30682 43.8774 5.34983 43.8651 5.39069L43.8506 5.44123C43.8338 5.49822 43.8182 5.55413 43.8036 5.60897C43.7824 5.69069 43.7623 5.77241 43.7422 5.85521C43.722 5.938 43.703 6.02295 43.684 6.10789C43.6751 6.15091 43.665 6.19392 43.6561 6.238C43.5275 6.84983 43.4392 7.48424 43.3777 8.23478C43.3721 8.29607 43.3677 8.35843 43.3632 8.4208C43.3543 8.5466 43.3453 8.67671 43.3375 8.81112C43.3252 9.0122 43.3151 9.22402 43.3062 9.44553C43.2972 9.66703 43.2905 9.90037 43.2849 10.1455C43.276 10.5531 43.2715 10.9993 43.2715 11.4735C43.2715 12.181 43.3733 12.8928 43.5722 13.5864C43.6214 13.7574 43.6773 13.9283 43.7388 14.0971C43.769 14.181 43.8014 14.2649 43.8349 14.3488C43.902 14.5165 43.9758 14.6821 44.0529 14.8423C44.2094 15.167 44.3894 15.4853 44.5884 15.7864C44.8388 16.1681 45.1238 16.5315 45.4357 16.867C45.6884 17.1402 45.9622 17.3982 46.2484 17.6337C46.3949 17.7541 46.5458 17.8703 46.6978 17.9799C47.0086 18.2025 47.3372 18.4068 47.6737 18.5842C47.7251 18.6133 47.7777 18.6423 47.8347 18.6735L48.5333 19.0305C48.8072 19.1638 49.0934 19.2982 49.3807 19.4337C50.5131 19.966 51.679 20.5133 52.0815 21.0047C50.7277 20.5982 47.9889 20.2918 44.6432 20.1767L44.6599 20.1896Z" fill="white"/>
<path id="Vector_2" d="M52.5295 24.4842C52.8537 24.4982 53.1756 24.5359 53.5042 24.6251C53.6675 24.6735 53.834 24.7326 53.9984 24.8423C54.08 24.8982 54.1627 24.967 54.232 25.0627C54.3002 25.1595 54.3527 25.2832 54.3661 25.4165C54.3784 25.5488 54.3538 25.6703 54.3181 25.7767C54.2823 25.8832 54.2342 25.9778 54.1817 26.0606C54.0766 26.2305 53.9559 26.3681 53.8318 26.4971C53.5814 26.7531 53.3097 26.9606 53.0336 27.1552C52.4758 27.5369 51.8889 27.8488 51.2886 28.123C50.989 28.2627 50.6839 28.3875 50.3764 28.5058C50.069 28.624 49.7605 28.7391 49.4475 28.8391C49.1345 28.9412 48.8204 29.0369 48.5051 29.1273C48.1888 29.2165 47.8702 29.295 47.5505 29.3713C46.9111 29.5251 46.2649 29.6423 45.6154 29.7434C44.3154 29.938 42.9996 30.0423 41.6805 30.0391C41.3508 30.0391 41.0221 30.0305 40.6923 30.0197C40.3637 30.0058 40.035 29.9875 39.7064 29.9627C39.0502 29.9068 38.3962 29.838 37.7467 29.7359C37.0973 29.6316 36.45 29.5144 35.8117 29.3584C35.492 29.2821 35.1734 29.2025 34.857 29.1133C34.5418 29.0219 34.2277 28.9251 33.9147 28.8219C33.6017 28.7208 33.2931 28.6058 32.9869 28.4853C32.6806 28.3649 32.3754 28.2402 32.0758 28.0982C31.4755 27.8208 30.8897 27.5058 30.3341 27.1176C30.0591 26.9176 29.7875 26.7079 29.5405 26.4412C29.4186 26.3058 29.299 26.1617 29.2006 25.9789C29.1514 25.8885 29.1067 25.7853 29.0821 25.6681C29.0553 25.552 29.0542 25.4133 29.09 25.2842C29.128 25.1552 29.1995 25.0498 29.2755 24.967C29.3538 24.8896 29.4365 24.8262 29.5215 24.7821C29.6891 24.6896 29.8546 24.6348 30.0178 24.5918C30.3464 24.5101 30.6695 24.4789 30.9937 24.467C30.703 24.6036 30.4135 24.738 30.162 24.9047C30.0368 24.9864 29.9194 25.0746 29.8356 25.1681C29.792 25.2144 29.764 25.2617 29.7428 25.3025C29.7283 25.3434 29.726 25.3767 29.7327 25.3982C29.7428 25.4197 29.754 25.4369 29.7752 25.466C29.7976 25.4939 29.8233 25.5283 29.8635 25.5649C29.9373 25.638 30.0424 25.7144 30.1542 25.7832C30.3811 25.924 30.6427 26.0488 30.9143 26.1584C31.186 26.2692 31.4665 26.3703 31.7527 26.4595C32.0389 26.5498 32.3284 26.6359 32.6224 26.7111C32.9164 26.7853 33.2104 26.8606 33.5078 26.9262C33.8051 26.9928 34.1047 27.0498 34.4032 27.1101C36.8021 27.5638 39.2492 27.7735 41.6839 27.7821C42.9012 27.7821 44.122 27.7348 45.3382 27.624C45.9474 27.5735 46.5533 27.4993 47.1592 27.423C47.4622 27.3832 47.764 27.3348 48.0658 27.2875C48.3676 27.2412 48.6683 27.1896 48.9679 27.1316C49.2664 27.0724 49.5671 27.0165 49.8645 26.9509C50.1618 26.8853 50.4569 26.8133 50.7521 26.7402C51.3378 26.5864 51.9202 26.4154 52.4669 26.1961C52.7419 26.0896 53.0046 25.966 53.2404 25.8283C53.3567 25.7595 53.4674 25.6853 53.5512 25.6101C53.6373 25.5348 53.6932 25.4606 53.7155 25.4197C53.7256 25.3993 53.7312 25.3735 53.7256 25.3369C53.7166 25.3004 53.6932 25.2541 53.6585 25.2068C53.5881 25.1111 53.4741 25.0197 53.3533 24.9348C53.1063 24.7649 52.819 24.6262 52.5306 24.4875L52.5295 24.4842Z" fill="#3FBAEB"/>
<path id="Vector_3" d="M7.67865 4.48862H0.0335361L0.00223574 4.94131L1.02397 5.05206C1.06533 5.05637 1.11005 5.06927 1.13017 5.17034V15.6574C1.11005 15.7585 1.06533 15.7714 1.0195 15.7757L0.0324183 15.9037L0 16.3392L3.69233 16.322L3.69903 16.222C3.71468 16.0112 3.71692 15.9779 3.71692 15.965V15.8639L2.52639 15.7972V10.7284H6.67481L6.74411 11.8811L6.85702 11.8736C7.00905 11.8628 7.09289 11.8574 7.10854 11.8574H7.22033V8.7897L6.72623 8.84884L6.65133 10.0897C6.65133 10.1349 6.63456 10.1542 6.62003 10.166C6.59767 10.1854 6.57979 10.1865 6.56078 10.1832L2.52639 10.1811V5.03486H7.00905L7.29075 7.27034L7.84857 7.05529L7.61829 4.65744L7.67754 4.48755L7.67865 4.48862Z" fill="white"/>
<path id="Vector_4" d="M24.8344 10.9637C25.267 10.7357 25.7287 10.2906 26.2072 9.63789C26.7303 8.92499 26.9953 8.22929 26.9953 7.568C26.9953 6.55402 26.6566 5.77767 25.9869 5.26047C25.3252 4.74972 24.3783 4.4895 23.1733 4.4895H18.8762L18.8449 4.94111L19.8644 5.05187C19.8968 5.05617 19.9314 5.068 19.956 5.13036V15.7067C19.9214 15.7626 19.8867 15.7734 19.8632 15.7766L18.8762 15.9046L18.8438 16.34L22.5361 16.3228L22.5428 16.2228C22.5584 16.0121 22.5607 15.9787 22.5607 15.9658V15.8648L21.3523 15.7981V11.2271H23.4729L26.7516 16.34L28.7984 16.3218L28.8051 16.2228C28.8207 16.0078 28.823 15.9787 28.823 15.9658V15.8648L27.9309 15.8121L24.8333 10.9637H24.8344ZM21.3534 4.95294H23.0883C23.9021 4.95294 24.5304 5.1809 24.9552 5.63144C25.3822 6.0852 25.599 6.76907 25.599 7.66692C25.599 8.12714 25.4973 8.60778 25.2961 9.09595C25.0994 9.57552 24.7103 10.1357 24.1413 10.7626H21.3534V4.95294Z" fill="white"/>
<path id="Vector_5" d="M64.2834 11.4176V11.3101L60.9544 11.3284V11.4348C60.9544 11.5423 60.9611 11.6294 60.9734 11.7015L60.988 11.7853L62.307 11.8735C62.3909 11.8875 62.4211 11.9198 62.4211 11.9983L62.354 15.7241C61.3859 15.8574 60.6403 15.9251 60.135 15.9251C59.6297 15.9251 59.2083 15.895 58.9244 15.8359C58.6449 15.7778 58.3353 15.6466 58.0032 15.4434C56.9044 14.7703 56.3466 13.2434 56.3466 10.9036C56.3466 8.96599 56.7233 7.46814 57.4655 6.45094C58.1989 5.44556 59.2072 4.93696 60.4626 4.93696C61.2406 4.93696 62.0868 5.22836 62.98 5.80363L63.2148 7.66599L63.7547 7.47459L63.5345 4.93481L63.4674 4.91115C63.2047 4.81975 62.7777 4.72836 62.1617 4.63266C61.5536 4.53803 60.9812 4.49072 60.4614 4.49072C58.7433 4.49072 57.3672 5.08427 56.3723 6.25631C55.4277 7.36599 54.9492 8.93051 54.9492 10.9058C54.9492 11.7972 55.0554 12.5896 55.2645 13.2606C55.4746 13.9337 55.7396 14.4735 56.0503 14.8638C56.3633 15.2552 56.749 15.5757 57.1984 15.8133C57.6444 16.0499 58.0726 16.2079 58.4739 16.281C58.8707 16.3542 59.3413 16.3907 59.8757 16.3907C60.41 16.3907 61.1053 16.337 61.9516 16.2327C62.8123 16.1262 63.3299 16.0402 63.5356 15.9703L63.6105 15.9445V11.8466L64.308 11.7628L64.3002 11.6606C64.289 11.5155 64.2834 11.4348 64.2834 11.4187V11.4176Z" fill="white"/>
<path id="Vector_6" d="M81.1093 4.48853H79.8092L76.0599 15.6251C76.0017 15.7573 75.9537 15.7745 75.9414 15.7756L74.9543 15.9036L74.9219 16.3391L78.6142 16.3219L78.6209 16.2219C78.6366 16.0111 78.6388 15.9778 78.6388 15.9649V15.8627L76.6736 15.7649L77.522 13.0842H82.7425L83.6592 15.6993C83.6558 15.7702 83.6334 15.7735 83.6178 15.7756L82.6419 15.9025L82.6262 15.9778C82.6128 16.0401 82.6072 16.1229 82.6072 16.2315V16.3391L86.2739 16.3219L86.2817 16.2229C86.2973 16.0079 86.2996 15.9788 86.2996 15.9659V15.8649L85.0789 15.7971L81.1082 4.4896L81.1093 4.48853ZM82.548 12.5391H77.6953L80.016 5.26379L82.548 12.5391Z" fill="white"/>
<path id="Vector_7" d="M107.458 4.59615V4.48755L103.956 4.50583V4.61228C103.956 4.71981 103.963 4.8069 103.975 4.87895L103.989 4.96067L105.657 5.10045C105.699 5.10583 105.73 5.15422 105.751 5.19938L105.834 15.3435L99.3334 4.54239L99.301 4.48862H96.7679L96.7366 4.94024L97.7583 5.05099C97.7997 5.05529 97.8444 5.06819 97.8645 5.16927V15.6564C97.8444 15.7574 97.7997 15.7703 97.7539 15.7746L96.7668 15.9026L96.7344 16.3381L100.427 16.3209L100.433 16.2209C100.449 16.0101 100.451 15.9768 100.451 15.9639V15.8617L98.4838 15.7617L98.4011 5.46497L104.902 16.2671L104.934 16.3209H106.369V5.05852L107.482 4.94131L107.474 4.83809C107.463 4.69185 107.457 4.6112 107.457 4.59723L107.458 4.59615Z" fill="white"/>
<path id="Vector_8" d="M118.251 4.48844L118.119 4.42822L118.088 4.77661L118.021 5.03467H118.061L117.891 7.05403L118.429 7.27231L118.711 5.03467H121.468V15.6562C121.448 15.7573 121.403 15.7702 121.357 15.7745L120.381 15.9013L120.366 15.9766C120.352 16.039 120.347 16.1218 120.347 16.2304V16.3379L124.013 16.3207L124.021 16.2218C124.037 16.0067 124.039 15.9777 124.039 15.9648V15.8626L122.779 15.796V5.03575H125.588L125.87 7.27123L126.428 7.05725L126.186 4.48951H118.251V4.48844Z" fill="white"/>
<path id="Vector_9" d="M141.839 4.34009C140.363 4.34009 139.112 4.9003 138.122 6.00353C137.136 7.10245 136.637 8.59493 136.637 10.439C136.637 14.4422 138.387 16.4723 141.839 16.4723C143.327 16.4723 144.58 15.9272 145.564 14.8508C146.544 13.7788 147.041 12.2949 147.041 10.4401C147.041 6.39278 145.29 4.34116 141.838 4.34116L141.839 4.34009ZM141.839 15.925C139.278 15.925 138.034 14.1197 138.034 10.4057C138.034 8.69923 138.404 7.33579 139.135 6.35192C139.857 5.37987 140.767 4.88632 141.839 4.88632C144.399 4.88632 145.645 6.6917 145.645 10.4057C145.645 12.1336 145.277 13.5035 144.552 14.4756C143.836 15.4369 142.924 15.925 141.839 15.925Z" fill="white"/>
<path id="Vector_10" d="M83.4049 25.9809H81.993V24.5412H83.159L83.1802 24.8949L83.2652 24.8895C83.3088 24.8863 83.3334 24.8852 83.3378 24.8852H83.4217V23.8498L83.1746 23.8799L83.1512 24.2799H81.9942V22.81H83.2641L83.3524 23.51L83.6162 23.4078L83.5435 22.653L83.5804 22.5476H81.1379L81.1222 22.7756L81.4687 22.8132V25.9842L81.1379 26.0272L81.1211 26.2498L83.6777 26.2444L83.7693 25.2186L83.5078 25.153L83.4049 25.982V25.9809Z" fill="white"/>
<path id="Vector_11" d="M87.1475 25.9809H85.8563V22.8067L86.2241 22.7755L86.2185 22.6959C86.2151 22.6551 86.214 22.6314 86.214 22.625V22.5454L84.9855 22.5508L85.0011 22.7809L85.332 22.811V25.982L85.0011 26.025L84.9844 26.2476L87.4258 26.2422L87.5175 25.2164L87.257 25.1508L87.1497 25.9798L87.1475 25.9809Z" fill="white"/>
<path id="Vector_12" d="M90.9752 25.9809H89.5633V24.5412H90.7293L90.7505 24.8949L90.8355 24.8895C90.8791 24.8863 90.9037 24.8852 90.9081 24.8852H90.992V23.8498L90.7449 23.8799L90.7215 24.2799H89.5645V22.81H90.8344L90.9227 23.51L91.1865 23.4078L91.1138 22.653L91.1507 22.5476H88.7082L88.6925 22.7756L89.0391 22.8132V25.9842L88.7082 26.0272L88.6914 26.2498L91.248 26.2444L91.3396 25.2186L91.0781 25.153L90.9752 25.982V25.9809Z" fill="white"/>
<path id="Vector_13" d="M95.908 22.625V22.5454L94.7164 22.5508V22.6314C94.7164 22.6669 94.7186 22.6959 94.7231 22.7207L94.7342 22.782L95.2451 22.825L94.3027 25.8013L93.2586 22.8078L93.6242 22.7744L93.6186 22.6959C93.6152 22.654 93.6141 22.6304 93.613 22.6261V22.5454L92.3945 22.5508V22.6314C92.3945 22.6669 92.3968 22.6959 92.4012 22.7207L92.4113 22.782L92.7288 22.811L93.9361 26.2433H94.2793L94.3094 26.3314L94.3374 26.2433H94.4033L95.5603 22.8078L95.9181 22.7755L95.9125 22.697C95.9091 22.6562 95.908 22.6325 95.908 22.6261V22.625Z" fill="white"/>
<path id="Vector_14" d="M98.1868 22.5456H97.8436L97.8134 22.4585L97.7855 22.5456H97.7195L96.5692 25.9639C96.5647 25.9725 96.5614 25.9789 96.5591 25.9822L96.2316 26.0241L96.2148 26.2467L97.4389 26.2413L97.4445 26.1671C97.4479 26.1166 97.4501 26.0897 97.4501 26.0854V26.009L96.8688 25.98L97.098 25.2563H98.6138L98.8698 25.9854L98.578 26.023L98.5657 26.0789C98.5613 26.1015 98.559 26.1295 98.559 26.166V26.2467L99.7719 26.2413L99.7775 26.1671C99.7809 26.1166 99.7831 26.0897 99.7831 26.0854V26.009L99.3985 25.9875L98.189 22.5445L98.1868 22.5456ZM97.1796 24.9961L97.8201 22.9865L98.5199 24.9961H97.1796Z" fill="white"/>
<path id="Vector_15" d="M100.616 22.5456L100.524 22.5005L100.509 22.6736L100.479 22.808H100.496L100.445 23.4059L100.704 23.5102L100.792 22.808H101.537V25.9833L101.214 26.0252L101.202 26.0811C101.198 26.1037 101.195 26.1317 101.195 26.1682V26.2489L102.408 26.2435L102.414 26.1693C102.417 26.1188 102.419 26.0919 102.419 26.0876V26.0112L102.036 25.9908V22.8091H102.797L102.886 23.5091L103.149 23.4069L103.069 22.5467H100.617L100.616 22.5456Z" fill="white"/>
<path id="Vector_16" d="M106.596 25.9809H105.184V24.5412H106.35L106.372 24.8949L106.457 24.8895C106.5 24.8863 106.525 24.8852 106.529 24.8852H106.613V23.8498L106.366 23.8799L106.343 24.2799H105.186V22.81H106.455L106.544 23.51L106.808 23.4078L106.735 22.653L106.772 22.5476H104.329L104.314 22.7756L104.66 22.8132V25.9842L104.329 26.0272L104.312 26.2498L106.869 26.2444L106.961 25.2186L106.699 25.153L106.596 25.982V25.9809Z" fill="white"/>
<path id="Vector_17" d="M114.06 22.625V22.5454L112.868 22.5508V22.6314C112.868 22.6669 112.871 22.6959 112.875 22.7207L112.886 22.782L113.386 22.8239L112.498 24.6949L111.543 22.8078L111.934 22.7755L111.928 22.6959C111.925 22.654 111.924 22.6304 111.924 22.6261V22.5454L110.695 22.5508V22.6314C110.695 22.6669 110.698 22.6959 110.702 22.7207L110.712 22.782L110.979 22.8067C110.979 22.8067 110.98 22.8067 110.981 22.8078L112.144 24.9895V25.983L111.821 26.025L111.809 26.0809C111.804 26.1035 111.802 26.1314 111.802 26.168V26.2486L112.937 26.2433L113.015 26.239L113.02 26.1648C113.024 26.1175 113.026 26.0916 113.026 26.0873V26.011L112.643 25.9906V24.9895L113.737 22.8046L114.071 22.7766L114.066 22.697C114.062 22.6562 114.061 22.6325 114.061 22.6261L114.06 22.625Z" fill="white"/>
<path id="Vector_18" d="M116.555 22.5003C116.09 22.5003 115.698 22.6767 115.386 23.0229C115.078 23.3659 114.922 23.8315 114.922 24.4036C114.922 25.6541 115.472 26.2874 116.555 26.2874C117.022 26.2874 117.417 26.1154 117.727 25.7778C118.033 25.4423 118.188 24.9799 118.188 24.4036C118.188 23.1401 117.638 22.4993 116.555 22.4993V22.5003ZM115.773 23.1885C115.985 22.9014 116.241 22.7627 116.555 22.7627C117.301 22.7627 117.663 23.296 117.663 24.395C117.663 24.9111 117.554 25.3175 117.34 25.6057C117.129 25.8885 116.871 26.0272 116.555 26.0272C115.809 26.0272 115.447 25.4939 115.447 24.395C115.447 23.8853 115.557 23.4799 115.773 23.1896V23.1885Z" fill="white"/>
<path id="Vector_19" d="M122.937 22.6261V22.5454L121.771 22.5508V22.6314C121.771 22.6669 121.773 22.6959 121.778 22.7207L121.788 22.782L122.217 22.8218V24.6422C122.217 25.1852 122.11 25.554 121.897 25.74C121.798 25.8293 121.695 25.8916 121.592 25.925C121.486 25.9594 121.365 25.9766 121.232 25.9766C121.099 25.9766 120.985 25.9605 120.89 25.9282C120.797 25.897 120.703 25.8379 120.61 25.7508C120.415 25.5755 120.316 25.2024 120.316 24.6433V22.8078L120.678 22.7766L120.672 22.697C120.669 22.6562 120.668 22.6325 120.668 22.6261V22.5465L119.449 22.5519V22.6325C119.449 22.668 119.451 22.697 119.456 22.7218L119.467 22.783L119.79 22.8132C119.79 22.8132 119.79 22.8132 119.79 22.8142V24.6486C119.79 25.3013 119.944 25.7476 120.247 25.9744C120.393 26.0852 120.545 26.1626 120.7 26.2035C120.852 26.2443 121.03 26.2648 121.229 26.2648C122.075 26.2648 122.504 25.7207 122.504 24.6486V22.8218L122.946 22.7755L122.94 22.6981C122.937 22.6562 122.936 22.6325 122.935 22.6282L122.937 22.6261Z" fill="white"/>
<path id="Vector_20" d="M126.035 24.5809C126.16 24.5035 126.289 24.3744 126.425 24.1884C126.591 23.9637 126.674 23.7422 126.674 23.5304C126.674 23.2067 126.565 22.9572 126.349 22.7906C126.139 22.6282 125.84 22.5454 125.461 22.5454H124.107L124.091 22.7734L124.432 22.811V25.983L124.107 26.025L124.09 26.2476L125.314 26.2422L125.32 26.168C125.323 26.1175 125.325 26.0906 125.325 26.0863V26.0099L124.957 25.9895V24.6916H125.525L126.523 26.2476L127.221 26.2411L127.227 26.1669C127.23 26.1164 127.232 26.0895 127.232 26.0852V26.0089L126.939 25.9916L126.036 24.5787L126.035 24.5809ZM124.956 22.783H125.435C125.672 22.783 125.845 22.8454 125.966 22.9734C126.087 23.1024 126.149 23.3002 126.149 23.5605C126.149 23.6949 126.119 23.8347 126.061 23.9777C126.005 24.1142 125.894 24.2744 125.733 24.4551H124.957V22.783H124.956Z" fill="white"/>
<path id="Vector_21" d="M136.004 22.6262V22.5456L134.801 22.551L134.817 22.7811L135.343 22.8241L134.514 25.7284L133.673 22.6219L133.703 22.5445H133.652L133.611 22.3972L133.534 22.5445H133.438L132.528 25.7155L131.759 22.808L132.153 22.7736L132.147 22.694C132.144 22.6531 132.143 22.6295 132.143 22.623V22.5435L130.914 22.5488L130.93 22.7789L131.258 22.809L132.173 26.2413H132.496L132.523 26.3435L132.552 26.2413H132.627L133.426 23.4607L134.157 26.2413H134.479L134.509 26.3521L134.54 26.2413H134.605L135.647 22.8058L136.014 22.7736L136.008 22.6951C136.005 22.6531 136.004 22.6295 136.003 22.6252L136.004 22.6262Z" fill="white"/>
<path id="Vector_22" d="M138.396 22.7755L138.39 22.6959C138.387 22.654 138.386 22.6304 138.386 22.6261V22.5454L137.157 22.5508L137.173 22.7809L137.504 22.8121C137.504 22.8121 137.504 22.8142 137.504 22.8164L137.508 22.8347V25.9551L137.504 25.9841L137.173 26.0271L137.156 26.2497L138.38 26.2443L138.386 26.1701C138.389 26.1196 138.392 26.0927 138.392 26.0884V26.0121L138.035 25.9916V22.8078L138.397 22.7766L138.396 22.7755Z" fill="white"/>
<path id="Vector_23" d="M143.035 22.6262V22.5456L141.869 22.551V22.6316C141.869 22.6671 141.871 22.6961 141.876 22.7209L141.887 22.7821L142.416 22.8262L142.439 25.7166L140.531 22.5456H140.156L140.107 22.4639V22.5456H139.685L139.669 22.7735L140.016 22.8112V25.9832L139.685 26.0262L139.668 26.2488L140.892 26.2434L140.898 26.1692C140.901 26.1187 140.903 26.0918 140.903 26.0875V26.0112L140.304 25.9811L140.281 23.0735L142.189 26.2445H142.563L142.612 26.3273V26.2445H142.704V22.8112L143.046 22.7757L143.041 22.6983C143.037 22.6563 143.036 22.6327 143.035 22.6284V22.6262Z" fill="white"/>
<path id="Vector_24" d="M146.68 25.1519L146.577 25.9809H145.165V24.5412H146.331L146.352 24.8949L146.437 24.8895C146.481 24.8863 146.505 24.8852 146.51 24.8852H146.594V23.8498L146.346 23.8799L146.323 24.2799H145.166V22.81H146.436L146.524 23.51L146.788 23.4078L146.715 22.653L146.752 22.5476H144.31L144.294 22.7756L144.641 22.8132V25.9842L144.31 26.0272L144.293 26.2498L146.85 26.2444L146.941 25.2186L146.68 25.153V25.1519Z" fill="white"/>
</g>
</g>
<defs>
<clipPath id="clip0_147_87">
<rect width="147" height="30" fill="white"/>
</clipPath>
</defs>
</svg>
