<svg width="42" height="42" viewBox="0 0 42 42" fill="none" xmlns="http://www.w3.org/2000/svg">
<g id="streamline:flower">
<g id="Group">
<path id="Vector" d="M21.0015 25.572C23.1683 25.572 24.9268 23.8265 24.9268 21.6728C24.9268 19.5191 23.1683 17.7737 21.0015 17.7737C18.8347 17.7737 17.0762 19.5191 17.0762 21.6728C17.0762 23.8265 18.8347 25.572 21.0015 25.572Z" stroke="black" strokeWidth="2" stroke-linecap="round" strokeLinecap="round"/>
<path id="Vector_2" d="M37.6713 16.6484C37.1148 14.9558 35.9094 13.5533 34.3197 12.7487C32.7301 11.944 30.8861 11.803 29.1926 12.3567C28.5881 12.528 28.0142 12.7929 27.4916 13.1417C27.7799 12.1367 27.8308 11.0784 27.6404 10.0503C27.4499 9.02216 27.0232 8.05235 26.394 7.21727C25.7647 6.38219 24.9502 5.70467 24.0144 5.2381C23.0787 4.77154 22.0474 4.52869 21.0018 4.52869C19.9562 4.52869 18.9249 4.77154 17.9891 5.2381C17.0534 5.70467 16.2388 6.38219 15.6096 7.21727C14.9803 8.05235 14.5537 9.02216 14.3632 10.0503C14.1727 11.0784 14.2236 12.1367 14.5119 13.1417C13.991 12.7837 13.417 12.5099 12.8109 12.3305C11.9741 12.0573 11.0917 11.9516 10.214 12.0194C9.33639 12.0872 8.48069 12.3273 7.6958 12.7258C6.91091 13.1243 6.2122 13.6735 5.63956 14.3421C5.06692 15.0106 4.63157 15.7854 4.35836 16.6222C4.08516 17.459 3.97945 18.3414 4.04727 19.2191C4.11509 20.0967 4.35511 20.9524 4.75363 21.7373C5.15215 22.5222 5.70137 23.2209 6.36992 23.7936C7.03847 24.3662 7.81326 24.8015 8.65006 25.0748C9.26299 25.2557 9.89572 25.3612 10.5342 25.3888C10.0465 25.78 9.60722 26.228 9.22578 26.7234C8.70476 27.4327 8.3298 28.2384 8.12265 29.0938C7.9155 29.9492 7.88028 30.8372 8.01905 31.7063C8.15781 32.5754 8.46779 33.4083 8.931 34.1566C9.3942 34.905 10.0014 35.5539 10.7174 36.0657C12.1642 37.1112 13.9651 37.5438 15.729 37.2694C17.4929 36.995 19.0773 36.0359 20.1382 34.6002C20.5054 34.0866 20.7962 33.5224 21.0018 32.9254C21.2164 33.5273 21.5129 34.0856 21.8915 34.6002C22.5486 35.4904 23.4136 36.2062 24.411 36.6851C25.4084 37.164 26.5079 37.3915 27.6135 37.3476C28.719 37.3037 29.797 36.9898 30.7533 36.4334C31.7096 35.8769 32.5152 35.0948 33.0996 34.1554C33.7969 33.0283 34.1413 31.7184 34.0886 30.3941C34.0359 29.0698 33.5885 27.7915 32.8039 26.7234C32.4225 26.228 31.9832 25.78 31.4955 25.3888C32.1252 25.3591 32.749 25.2536 33.3535 25.0748C34.1919 24.8075 34.9693 24.377 35.6407 23.8082C36.3121 23.2393 36.8644 22.5432 37.2657 21.76C37.6671 20.9768 37.9095 20.122 37.9791 19.2447C38.0487 18.3674 37.9441 17.4851 37.6713 16.6484Z" stroke="black" strokeWidth="2" stroke-linecap="round" strokeLinecap="round"/>
</g>
</g>
</svg>
