<svg width="42" height="42" viewBox="0 0 42 42" fill="none" xmlns="http://www.w3.org/2000/svg">
<g id="fluent:hourglass-24-regular">
<path id="Vector" d="M8 9.4C8 8.23305 8.47081 7.11389 9.30887 6.28873C10.1469 5.46357 11.2836 5 12.4688 5H29.5312C30.1181 5 30.6992 5.11381 31.2414 5.33493C31.7835 5.55605 32.2762 5.88015 32.6911 6.28873C33.1061 6.69731 33.4353 7.18236 33.6598 7.71619C33.8844 8.25003 34 8.82218 34 9.4V10.072C33.9998 11.6606 33.5818 13.2221 32.7867 14.6044C31.9916 15.9867 30.8466 17.1428 29.463 17.96L26.5217 19.6976C26.3464 19.8013 26.2004 19.9467 26.0971 20.1205C25.9938 20.2943 25.9366 20.4909 25.9308 20.6922C25.925 20.8935 25.9707 21.093 26.0637 21.2724C26.1568 21.4517 26.2942 21.6051 26.4633 21.7184L29.9099 24.0272C31.17 24.8708 32.2015 26.0051 32.9144 27.3311C33.6273 28.6572 34 30.1348 34 31.6352V32.6C34 33.1778 33.8844 33.75 33.6598 34.2838C33.4353 34.8176 33.1061 35.3027 32.6911 35.7113C32.2762 36.1198 31.7835 36.4439 31.2414 36.6651C30.6992 36.8862 30.1181 37 29.5312 37H12.4688C11.2836 37 10.1469 36.5364 9.30887 35.7113C8.47081 34.8861 8 33.767 8 32.6V31.6336C8.00027 30.1335 8.37309 28.6562 9.08598 27.3304C9.79887 26.0047 10.8302 24.8707 12.0901 24.0272L15.5367 21.7184C15.7058 21.6051 15.8432 21.4517 15.9363 21.2724C16.0293 21.093 16.075 20.8935 16.0692 20.6922C16.0634 20.4909 16.0062 20.2943 15.9029 20.1205C15.7996 19.9467 15.6536 19.8013 15.4783 19.6976L12.537 17.96C11.1534 17.1428 10.0084 15.9867 9.2133 14.6044C8.41822 13.2221 8.00022 11.6606 8 10.072V9.4ZM12.4688 7.4C11.3475 7.4 10.4375 8.296 10.4375 9.4V10.072C10.4378 11.2458 10.7467 12.3996 11.3342 13.421C11.9217 14.4425 12.7677 15.2968 13.7899 15.9008L16.7311 17.64C19.0224 18.992 19.115 22.2256 16.9066 23.704L13.4616 26.0112C12.5299 26.6347 11.7673 27.4731 11.2402 28.4534C10.7131 29.4337 10.4375 30.526 10.4375 31.6352V32.6C10.4375 33.704 11.3475 34.6 12.4688 34.6H29.5312C30.6525 34.6 31.5625 33.704 31.5625 32.6V31.6336C31.5624 30.5248 31.287 29.4329 30.7602 28.4529C30.2334 27.473 29.4712 26.6347 28.54 26.0112L25.0934 23.704C22.885 22.2256 22.9776 18.992 25.2673 17.64L28.2085 15.9008C29.231 15.297 30.0773 14.4427 30.6651 13.4213C31.2529 12.3999 31.562 11.246 31.5625 10.072V9.4C31.5625 8.296 30.6525 7.4 29.5312 7.4H12.4688Z" fill="black"/>
</g>
</svg>
