<svg width="42" height="42" viewBox="0 0 42 42" fill="none" xmlns="http://www.w3.org/2000/svg">
<g id="hugeicons:cube">
<path id="Vector" d="M4.88775 37.1123C5.4005 37.625 6.22475 37.625 7.875 37.625H25.375C27.0253 37.625 27.8495 37.625 28.3623 37.1123M4.88775 37.1123C4.375 36.5995 4.375 35.7753 4.375 34.125V16.625C4.375 14.9747 4.375 14.1505 4.88775 13.6378M4.88775 37.1123L15.3878 26.6122M28.3623 37.1123C28.875 36.5995 28.875 35.7753 28.875 34.125V16.625C28.875 14.9747 28.875 14.1505 28.3623 13.6378M28.3623 37.1123L37.1123 28.3623C37.625 27.8495 37.625 27.0253 37.625 25.375V7.875C37.625 6.22475 37.625 5.4005 37.1123 4.88775M4.88775 13.6378C5.4005 13.125 6.22475 13.125 7.875 13.125H25.375C27.0253 13.125 27.8495 13.125 28.3623 13.6378M4.88775 13.6378L13.6378 4.88775C14.1505 4.375 14.9747 4.375 16.625 4.375H34.125C35.7753 4.375 36.5995 4.375 37.1123 4.88775M15.3878 26.6122C15.9005 27.125 16.7247 27.125 18.375 27.125H24.5M15.3878 26.6122C14.875 26.0995 14.875 25.2753 14.875 23.625V18.375M28.3623 13.6378L37.1123 4.88775" stroke="black" strokeWidth="2" stroke-linecap="round" strokeLinecap="round"/>
</g>
</svg>
