<svg width="42" height="42" viewBox="0 0 42 42" fill="white" xmlns="http://www.w3.org/2000/svg">
<path d="M11.9948 18.491L11.9949 18.4907C13.0801 16.4015 14.5423 14.3585 16.0312 12.548L16.0316 12.5475C17.5226 10.7437 19.1247 9.03468 20.8286 7.43047L21 7.26914L21.1713 7.43045C22.8745 9.03358 24.4761 10.7414 25.9667 12.5439L25.967 12.5443C27.4577 14.355 28.9199 16.3998 30.0034 18.4891C31.0946 20.592 31.75 22.6437 31.75 24.4982C31.75 27.3493 30.6174 30.0836 28.6014 32.0996C26.5854 34.1157 23.8511 35.2482 21 35.2482C18.1489 35.2482 15.4146 34.1157 13.3986 32.0996C11.383 30.084 10.2505 27.3504 10.25 24.5L11.9948 18.491ZM11.9948 18.491C10.9057 20.5932 10.2504 22.6442 10.25 24.4982L11.9948 18.491ZM18.0367 5.95405L18.0368 5.95394C18.635 5.37041 19.2462 4.8004 19.87 4.24434L20.0235 4.11149C20.0236 4.1114 20.0237 4.11132 20.0238 4.11123C20.2954 3.87839 20.6413 3.75028 20.999 3.75C21.3539 3.74973 21.6974 3.87533 21.9684 4.10433L21.9732 4.10866L22.5355 4.60809C24.5906 6.48131 26.5112 8.49688 28.2832 10.6398C29.8549 12.5479 31.4534 14.7694 32.6676 17.1111L32.6676 17.1111C33.8741 19.4374 34.75 21.9795 34.75 24.5C34.75 28.1467 33.3013 31.6441 30.7227 34.2227C28.1441 36.8013 24.6467 38.25 21 38.25C17.3533 38.25 13.8559 36.8013 11.2773 34.2227C8.69866 31.6441 7.25 28.1467 7.25 24.5C7.25 21.9795 8.12586 19.4374 9.33243 17.1111L9.33247 17.111C10.5449 14.7711 12.1451 12.5479 13.7168 10.6416C15.0716 9.00271 16.5137 7.43792 18.0367 5.95405Z" fill="black" stroke="white" strokeWidth="0.5"/>
<path d="M18.8235 31.81L18.8249 31.8104C19.0142 31.8682 19.213 31.8879 19.41 31.8685C19.6069 31.8491 19.7981 31.7909 19.9724 31.6973C20.1468 31.6037 20.3009 31.4765 20.4259 31.323C20.5509 31.1696 20.6442 30.993 20.7006 30.8033C20.757 30.6136 20.7754 30.4146 20.7545 30.2178C20.7337 30.021 20.6741 29.8303 20.5792 29.6566C20.4843 29.4829 20.356 29.3297 20.2017 29.2059C20.0473 29.082 19.87 28.9899 19.6799 28.9349L19.6775 28.9342L19.6775 28.9342C18.9421 28.7133 18.273 28.3135 17.7301 27.7706C17.1871 27.2277 16.7873 26.5585 16.5665 25.8232L16.5663 25.8227C16.4528 25.4417 16.1926 25.1213 15.843 24.932C15.4934 24.7427 15.083 24.7 14.7018 24.8132L18.8235 31.81ZM18.8235 31.81C17.6095 31.447 16.5048 30.7878 15.6088 29.8918C14.7129 28.9959 14.0538 27.8913 13.6908 26.6774C13.5778 26.2962 13.6207 25.8856 13.8103 25.5361C13.9999 25.1864 14.3206 24.9264 14.7018 24.8132L18.8235 31.81Z" fill="black" stroke="white" strokeWidth="0.5"/>
</svg>
